<?xml version="1.0" standalone="no"?>
<!DOCTYPE svg PUBLIC "-//W3C//DTD SVG 20010904//EN"
 "http://www.w3.org/TR/2001/REC-SVG-20010904/DTD/svg10.dtd">
<svg version="1.0" xmlns="http://www.w3.org/2000/svg"
 width="512.000000pt" height="512.000000pt" viewBox="0 0 512.000000 512.000000"
 preserveAspectRatio="xMidYMid meet">

<g transform="translate(0.000000,512.000000) scale(0.100000,-0.100000)"
fill="#000000" stroke="none">
<path d="M240 2560 l0 -1540 1535 0 1535 0 0 1540 0 1540 -1535 0 -1535 0 0
-1540z m271 145 c3 -33 6 -53 7 -44 1 9 19 35 40 59 31 35 44 43 84 47 43 5
50 3 78 -25 16 -17 30 -40 30 -51 0 -29 12 -26 32 9 39 69 142 91 192 41 19
-19 21 -34 24 -144 1 -67 5 -132 7 -144 7 -30 43 -30 74 -2 29 27 71 115 71
149 1 39 34 103 69 133 40 33 93 44 146 28 111 -34 131 -35 180 -11 40 19 49
21 60 9 8 -8 38 -77 68 -153 l54 -139 32 83 c18 45 42 108 53 139 31 84 40 91
88 64 48 -28 79 -29 127 -3 21 11 55 20 76 20 72 0 146 -52 113 -79 -11 -9
-23 -7 -52 9 -46 24 -72 25 -102 4 -47 -32 -22 -70 70 -104 66 -25 98 -59 98
-106 0 -100 -99 -152 -204 -106 -88 40 -72 89 18 52 48 -20 58 -22 85 -10 35
14 48 47 32 77 -5 11 -36 30 -68 42 -72 27 -113 65 -113 103 0 25 -4 28 -31
28 -17 0 -38 4 -48 10 -16 8 -25 -8 -77 -138 -64 -158 -83 -188 -112 -173 -11
6 -45 75 -82 166 -51 126 -66 155 -79 150 -9 -4 -31 -9 -49 -12 -26 -5 -32 -9
-26 -22 4 -9 9 -44 12 -77 5 -77 -20 -139 -73 -180 -32 -24 -48 -29 -96 -29
-65 0 -100 19 -134 73 -11 17 -22 31 -25 31 -3 0 -14 -14 -25 -31 -30 -47 -70
-73 -115 -73 -68 0 -74 15 -80 176 -6 148 -9 159 -56 159 -64 0 -115 -94 -123
-230 l-6 -95 -32 -3 -33 -3 0 153 c0 167 -3 178 -52 178 -62 0 -117 -109 -126
-247 l-5 -83 -28 0 -29 0 0 188 c0 104 3 192 7 196 4 4 16 6 28 4 17 -3 21
-13 26 -63z m1883 59 c12 -5 16 -20 16 -58 l0 -51 24 40 c13 22 39 48 56 59
66 38 160 -4 160 -72 l0 -27 19 30 c43 70 110 100 169 76 49 -20 56 -44 60
-193 4 -144 12 -165 44 -116 13 20 18 21 32 9 15 -12 14 -15 -1 -42 -35 -59
-111 -61 -133 -3 -6 14 -10 80 -10 148 0 131 -5 146 -50 146 -63 0 -121 -110
-128 -242 l-4 -88 -29 0 -29 0 0 149 c0 163 -6 181 -57 181 -61 0 -123 -130
-123 -256 0 -69 -17 -92 -52 -73 -16 9 -18 28 -18 194 0 180 2 191 32 194 3 1
13 -2 22 -5z"/>
<path d="M1274 2699 c-65 -32 -80 -174 -24 -234 71 -76 173 -11 173 109 0 103
-71 162 -149 125z"/>
<path d="M3410 3355 l0 -745 740 0 740 0 0 745 0 745 -740 0 -740 0 0 -745z
m626 115 c34 -13 53 -38 54 -70 0 -23 2 -22 26 14 44 65 128 82 171 34 15 -17
19 -42 21 -144 3 -97 7 -124 17 -124 8 0 18 7 23 17 10 17 42 12 42 -7 0 -22
-49 -60 -78 -60 -49 0 -56 20 -62 158 -5 115 -7 125 -26 133 -60 22 -122 -78
-131 -210 -6 -77 -7 -81 -29 -81 -24 0 -24 0 -24 130 0 115 -2 132 -19 149
-25 25 -54 18 -86 -21 -31 -37 -46 -85 -54 -178 -6 -72 -7 -75 -31 -75 l-25 0
-3 168 -2 167 30 0 c29 0 30 -1 30 -47 l0 -48 20 33 c19 32 73 72 97 72 6 0
24 -5 39 -10z"/>
<path d="M3410 1765 l0 -745 740 0 740 0 0 745 0 745 -740 0 -740 0 0 -745z
m1000 199 l0 -55 -47 3 -48 3 -3 53 -3 52 50 0 51 0 0 -56z m-177 -19 c16 -11
15 -15 -13 -54 l-30 -41 -40 26 c-22 15 -40 28 -40 31 0 2 12 21 26 43 30 44
24 45 97 -5z m-233 -135 l0 -50 -50 0 -50 0 0 50 0 50 50 0 50 0 0 -50z m313
-29 l27 -39 -39 -31 -39 -31 -32 41 c-31 39 -32 41 -14 54 11 7 28 20 39 29
27 21 26 21 58 -23z m-313 -96 l0 -55 -50 0 -50 0 0 55 0 55 50 0 50 0 0 -55z
m130 0 l0 -55 -50 0 -50 0 0 55 0 55 50 0 50 0 0 -55z m-130 -125 l0 -50 -50
0 -50 0 0 50 0 50 50 0 50 0 0 -50z m130 0 l0 -50 -50 0 -50 0 0 50 0 50 50 0
50 0 0 -50z m130 0 l0 -50 -50 0 -50 0 0 50 0 50 50 0 50 0 0 -50z"/>
</g>
</svg>
